PathFileType	4	(X/Y/Z)	1_2_rein_66_p0_0-496_filt_butterworth.trc
DataRate	CameraRate	NumFrames	NumMarkers	Units	OrigDataRate	OrigDataStartFrame	OrigNumFrames
59.0	59.0	5	27	m	59.0	186	496
Frame#	Time	RHip			RKnee			RAnkle			RBigToe			RSmallToe			RHeel			LHip			LKnee			LAnkle			LBigToe			LSmallToe			LHeel			Neck			Head			Nose			RShoulder			RElbow			RWrist			RThumb			RIndex			RPinky			LShoulder			LElbow			LWrist			LThumb			LIndex			LPinky			
		X1	Y1	Z1	X2	Y2	Z2	X3	Y3	Z3	X4	Y4	Z4	X5	Y5	Z5	X6	Y6	Z6	X7	Y7	Z7	X8	Y8	Z8	X9	Y9	Z9	X10	Y10	Z10	X11	Y11	Z11	X12	Y12	Z12	X13	Y13	Z13	X14	Y14	Z14	X15	Y15	Z15	X16	Y16	Z16	X17	Y17	Z17	X18	Y18	Z18	X19	Y19	Z19	X20	Y20	Z20	X21	Y21	Z21	X22	Y22	Z22	X23	Y23	Z23	X24	Y24	Z24	X25	Y25	Z25	X26	Y26	Z26	X27	Y27	Z27	
186	3.152542372881356	0.24256802920322876	0.9508899157939603	0.5771424403554914	0.28815597948852395	0.5147967429219039	0.5621033174393817	0.25101995586935916	0.05353452847602943	0.5608594537218052	0.48240596767550986	0.12220996163010155	0.4652433638766933	0.42633642517442616	0.08097269287495629	0.5839288169087681	0.20752472920089798	0.001035182440758911	0.5386428357022705	0.19208985945132867	1.030276673269323	0.2927452755755221	0.2883514887336828	0.5746882704732025	0.2983285267140897	0.24372030975592582	0.10767130901676793	0.2727295430250142	0.43404775057812184	0.06846354467846028	0.2756360595703294	0.36582505087905526	0.05511678353405308	0.23385463850484328	0.19046887561872572	0.03798863705603987	0.30897243069574865	0.4579599073720262	1.5292488681216094	0.41439994919899015	0.646839702842372	1.7265117671870378	0.37471932982667566	0.5924579911171106	1.5831977987735517	0.3141369952266607	0.4336515429107992	1.4512047486927904	0.6065433647932451	0.305875182028844	1.1441372864828159	0.7273867292368805	0.3205136497414688	0.8528804100711224	0.7951082081058027	0.38405213262529214	0.7775120838464386	0.57371357696579	0.38825436710643446	0.7580446302510068	0.5557856625966232	0.3402924657394909	0.7426431361793416	0.6700912575625374	0.36538116314819047	1.5233416545683	0.2439651783637008	0.15166328370188545	1.3499063053484899	0.18664796902915987	0.03641514209314432	1.108191590053664	0.23830920831449687	0.03885571586810055	0.9888506489591729	0.2787659987714654	0.013054303122496405	0.9593695664908669	0.31530396885915735	-0.02173940387117497	0.9921270853879517	0.29338793657390844	
187	3.169491525423729	0.24313005982476416	0.9484720234022406	0.5757145877500518	0.28997991430049763	0.5161830220252098	0.5601842768978765	0.2514203194942164	0.05471257164462062	0.5601291616795355	0.4801190914462863	0.12255156484132732	0.46443439948904663	0.4236348226525619	0.07941510749523532	0.5893759453166416	0.20838194116540384	0.004754301060933511	0.537290569594888	0.19189407519491783	1.0290691412937758	0.2910949159721832	0.289160496312224	0.5761189195569432	0.29652749112707755	0.2427346709336636	0.1083457080776321	0.27238657378408687	0.4339665104692224	0.06675347915482366	0.27804662350216125	0.36750310991035406	0.054962627114088426	0.23452777934427543	0.1867358262994884	0.037986603373381916	0.3088833154716123	0.45921168571181153	1.525884957269289	0.41588241097979084	0.6504799551286329	1.722793895544777	0.3682862378340794	0.5944783949751662	1.5785236083577374	0.31290022663030936	0.4341006831813941	1.447153229127063	0.6059474022314004	0.3040379937907252	1.1385375690530029	0.728384549351537	0.3207780939735343	0.8505539991622939	0.7893259067867944	0.38494521063572884	0.7737558297511251	0.5689641202601735	0.3881183893934989	0.7553019308389015	0.5518924710304035	0.33891950146715727	0.740318887040292	0.6656916984195516	0.367819064771991	1.5188283147497934	0.24157586576607654	0.1536468682693673	1.345782006127642	0.18951244565426406	0.03702420423592722	1.1039831077949789	0.23746257280260516	0.04317345721227665	0.9866194112148313	0.27058373465108315	0.01666806207865001	0.951056384303404	0.3103134883683799	-0.016114239627432626	0.9865396792363493	0.3041504509149553	
188	3.1864406779661016	0.24401026642357235	0.9459280570171572	0.5741580446398891	0.2919069246713671	0.5173281086277272	0.5583800805803046	0.252016963246754	0.05572033929585398	0.5594516023168917	0.47755744391867205	0.12218575968368572	0.4649439407483666	0.4210919813403823	0.07675047286325076	0.594979176847223	0.20942226313059406	0.008615425270805395	0.535932106943079	0.19169816195376543	1.0279905734827175	0.2895512756766643	0.2896680553649905	0.5772159445311561	0.2946208036869074	0.24176932368268536	0.10911988322694115	0.2716279503568999	0.43415057968705584	0.065315743649448	0.2790601015515394	0.36875329527704415	0.05482953794740299	0.23467635815300297	0.18341174091512125	0.03818779150436094	0.30839724561658655	0.4609310290764883	1.5221068011711838	0.41837060420120287	0.6538344079969884	1.7186918666495388	0.36062890053708335	0.5959283002410913	1.5743381470842654	0.31182391011823685	0.4345966193272036	1.4435268055477146	0.6053991785255276	0.30378418731101947	1.1327920251114096	0.7274674439619729	0.3215347416916203	0.8487374280382531	0.7824570517898146	0.38460895917794957	0.7675759244877142	0.5684887672727069	0.38678530667124034	0.7508316491630544	0.5535317778459719	0.339574335313506	0.7389264673348341	0.6557830285777304	0.36961175035892285	1.5136704780555787	0.24015893930546345	0.1543649471242179	1.3430342165428806	0.18901037628955153	0.037257030747052056	1.1007873697440296	0.23702183957245126	0.04570790974803708	0.984672741084172	0.2647018041638182	0.01866049028684266	0.94442420188639	0.30620362334599405	-0.012287572373214246	0.9826965183204326	0.3105094747531592	
189	3.2033898305084745	0.2451543155512223	0.9433765022265533	0.5723004041758069	0.2939361704076787	0.5183554802736493	0.5566957197111575	0.2527221195082669	0.05653497781770478	0.5587785442105175	0.47544201562598354	0.12118468873971434	0.4669772504838056	0.41900261624092994	0.07328122799595115	0.6004129548451972	0.21058368912297992	0.012332317110047904	0.5343321779296295	0.1914346560235874	1.0270912068528328	0.2880048773313951	0.28968309308306595	0.5784636433216537	0.2925461286912927	0.24081381989957212	0.10994371061758762	0.27048500834223854	0.43464830953652	0.0643805797067001	0.27820616023898365	0.36975015856627547	0.05484166668219151	0.2339016573514595	0.18094158809295297	0.038703481278401564	0.3073181801085217	0.4630217051043074	1.518215601628605	0.42092046190659027	0.6570738526952296	1.714242052852626	0.35276034508407794	0.5972083578718675	1.5707147589356416	0.31151175156823874	0.4352119470013025	1.440490270616971	0.6048738149298329	0.30545476782588193	1.1270854819554093	0.7242428754102166	0.32237117296779405	0.8473513696741456	0.776311347268658	0.38319822560786637	0.7605787353011876	0.5702624091945167	0.38454630698888204	0.745497357279409	0.5586614261639643	0.34265030728052737	0.7387809635558242	0.6402343104593241	0.37051463661225315	1.5084052013233904	0.2402019662526122	0.15357294465850446	1.3419618161547469	0.18575117457545035	0.03713346015444555	1.0988716898760857	0.23715370793624688	0.046224959901246074	0.983272963711466	0.261938997405734	0.019005736186074092	0.9406286605544525	0.3032753902015288	-0.011050056239141057	0.9809258229348389	0.3108584635659153	
190	3.220338983050848	0.24646672925770488	0.940900124689604	0.5702070536640356	0.29600118491627164	0.5194721369246837	0.5551572055385781	0.25338474180562615	0.05725030306535222	0.5579903497720624	0.4741868321424292	0.1197174263746503	0.47018463936367977	0.41761869102684546	0.06964138751325438	0.6049485142307309	0.21168254260345007	0.015694786670963086	0.5322981742039636	0.19106485620731656	1.026413443204804	0.28637154155040706	0.2891907362058163	0.5801583210529646	0.2902958000441001	0.23989961716759595	0.11074905562875137	0.26894110180098457	0.43541676444379884	0.06421438859153794	0.27568816614295516	0.37066497009489363	0.05505529889539053	0.2321718791156727	0.1794809261418854	0.03958182485706702	0.30549545144502327	0.4653351816424781	1.5144848719455144	0.42266711277954894	0.6602396581513097	1.7098273136259663	0.34598470523847824	0.5986058266895907	1.5677797742759638	0.31214604097045967	0.4360732518543926	1.4377972821197174	0.6046749230901389	0.3088301428217174	1.1219643595358655	0.7191434143349125	0.32304011369604013	0.8462072697004235	0.7720087017313855	0.3812330684502254	0.7542828907223464	0.5727128085803739	0.38175811796022735	0.7402330637356028	0.5654486826393091	0.34742946034094047	0.7395848454383419	0.621899387129856	0.37059331931790496	1.503773323595239	0.2417169071243402	0.15111149327927842	1.342518412620653	0.18096143564651593	0.036572812926788406	1.0982293862070691	0.23773302289266313	0.04502633362942835	0.9828270332170034	0.2619299869673448	0.01801882341341345	0.9403662486051625	0.30169598586211993	-0.012569832991917863	0.981522577377302	0.3052265170174763	
